<svg width="61" height="30" viewBox="0 0 61 30" fill="none" xmlns="http://www.w3.org/2000/svg">
<rect x="0.5" y="0.5" width="60" height="29" rx="3.5" fill="white"/>
<path d="M20.8789 19V10.4102H24.1016C24.7578 10.4102 25.2832 10.498 25.6777 10.6738C26.0762 10.8457 26.3867 11.1133 26.6094 11.4766C26.8359 11.8359 26.9492 12.2129 26.9492 12.6074C26.9492 12.9746 26.8496 13.3203 26.6504 13.6445C26.4512 13.9688 26.1504 14.2305 25.748 14.4297C26.2676 14.582 26.666 14.8418 26.9434 15.209C27.2246 15.5762 27.3652 16.0098 27.3652 16.5098C27.3652 16.9121 27.2793 17.2871 27.1074 17.6348C26.9395 17.9785 26.7305 18.2441 26.4805 18.4316C26.2305 18.6191 25.916 18.7617 25.5371 18.8594C25.1621 18.9531 24.7012 19 24.1543 19H20.8789ZM22.0156 14.0195H23.873C24.377 14.0195 24.7383 13.9863 24.957 13.9199C25.2461 13.834 25.4629 13.6914 25.6074 13.4922C25.7559 13.293 25.8301 13.043 25.8301 12.7422C25.8301 12.457 25.7617 12.207 25.625 11.9922C25.4883 11.7734 25.293 11.625 25.0391 11.5469C24.7852 11.4648 24.3496 11.4238 23.7324 11.4238H22.0156V14.0195ZM22.0156 17.9863H24.1543C24.5215 17.9863 24.7793 17.9727 24.9277 17.9453C25.1895 17.8984 25.4082 17.8203 25.584 17.7109C25.7598 17.6016 25.9043 17.4434 26.0176 17.2363C26.1309 17.0254 26.1875 16.7832 26.1875 16.5098C26.1875 16.1895 26.1055 15.9121 25.9414 15.6777C25.7773 15.4395 25.5488 15.2734 25.2559 15.1797C24.9668 15.082 24.5488 15.0332 24.002 15.0332H22.0156V17.9863ZM28.918 19V10.4102H30.084L34.5957 17.1543V10.4102H35.6855V19H34.5195L30.0078 12.25V19H28.918ZM37.7949 19V10.4102H38.9316V19H37.7949Z" fill="black"/>
<rect x="0.5" y="0.5" width="60" height="29" rx="3.5" stroke="#D0D0D0"/>
</svg>
