<svg width="61" height="30" viewBox="0 0 61 30" fill="none" xmlns="http://www.w3.org/2000/svg">
<rect x="0.5" y="0.5" width="60" height="29" rx="3.5" fill="white"/>
<path d="M11.3906 19V10.4102H13.1016L15.1348 16.4922C15.3223 17.0586 15.459 17.4824 15.5449 17.7637C15.6426 17.4512 15.7949 16.9922 16.002 16.3867L18.0586 10.4102H19.5879V19H18.4922V11.8105L15.9961 19H14.9707L12.4863 11.6875V19H11.3906ZM25.3477 18.2324C24.957 18.5645 24.5801 18.7988 24.2168 18.9355C23.8574 19.0723 23.4707 19.1406 23.0566 19.1406C22.373 19.1406 21.8477 18.9746 21.4805 18.6426C21.1133 18.3066 20.9297 17.8789 20.9297 17.3594C20.9297 17.0547 20.998 16.7773 21.1348 16.5273C21.2754 16.2734 21.457 16.0703 21.6797 15.918C21.9062 15.7656 22.1602 15.6504 22.4414 15.5723C22.6484 15.5176 22.9609 15.4648 23.3789 15.4141C24.2305 15.3125 24.8574 15.1914 25.2598 15.0508C25.2637 14.9062 25.2656 14.8145 25.2656 14.7754C25.2656 14.3457 25.166 14.043 24.9668 13.8672C24.6973 13.6289 24.2969 13.5098 23.7656 13.5098C23.2695 13.5098 22.9023 13.5977 22.6641 13.7734C22.4297 13.9453 22.2559 14.252 22.1426 14.6934L21.1113 14.5527C21.2051 14.1113 21.3594 13.7559 21.5742 13.4863C21.7891 13.2129 22.0996 13.0039 22.5059 12.8594C22.9121 12.7109 23.3828 12.6367 23.918 12.6367C24.4492 12.6367 24.8809 12.6992 25.2129 12.8242C25.5449 12.9492 25.7891 13.1074 25.9453 13.2988C26.1016 13.4863 26.2109 13.7246 26.2734 14.0137C26.3086 14.1934 26.3262 14.5176 26.3262 14.9863V16.3926C26.3262 17.373 26.3477 17.9941 26.3906 18.2559C26.4375 18.5137 26.5273 18.7617 26.6602 19H25.5586C25.4492 18.7812 25.3789 18.5254 25.3477 18.2324ZM25.2598 15.877C24.877 16.0332 24.3027 16.166 23.5371 16.2754C23.1035 16.3379 22.7969 16.4082 22.6172 16.4863C22.4375 16.5645 22.2988 16.6797 22.2012 16.832C22.1035 16.9805 22.0547 17.1465 22.0547 17.3301C22.0547 17.6113 22.1602 17.8457 22.3711 18.0332C22.5859 18.2207 22.8984 18.3145 23.3086 18.3145C23.7148 18.3145 24.0762 18.2266 24.3926 18.0508C24.709 17.8711 24.9414 17.627 25.0898 17.3184C25.2031 17.0801 25.2598 16.7285 25.2598 16.2637V15.877ZM27.9668 19V12.7773H28.916V13.6621C29.373 12.9785 30.0332 12.6367 30.8965 12.6367C31.2715 12.6367 31.6152 12.7051 31.9277 12.8418C32.2441 12.9746 32.4805 13.1504 32.6367 13.3691C32.793 13.5879 32.9023 13.8477 32.9648 14.1484C33.0039 14.3438 33.0234 14.6855 33.0234 15.1738V19H31.9688V15.2148C31.9688 14.7852 31.9277 14.4648 31.8457 14.2539C31.7637 14.0391 31.6172 13.8691 31.4062 13.7441C31.1992 13.6152 30.9551 13.5508 30.6738 13.5508C30.2246 13.5508 29.8359 13.6934 29.5078 13.9785C29.1836 14.2637 29.0215 14.8047 29.0215 15.6016V19H27.9668ZM38.6836 19V18.2148C38.2891 18.832 37.709 19.1406 36.9434 19.1406C36.4473 19.1406 35.9902 19.0039 35.5723 18.7305C35.1582 18.457 34.8359 18.0762 34.6055 17.5879C34.3789 17.0957 34.2656 16.5312 34.2656 15.8945C34.2656 15.2734 34.3691 14.7109 34.5762 14.207C34.7832 13.6992 35.0938 13.3105 35.5078 13.041C35.9219 12.7715 36.3848 12.6367 36.8965 12.6367C37.2715 12.6367 37.6055 12.7168 37.8984 12.877C38.1914 13.0332 38.4297 13.2383 38.6133 13.4922V10.4102H39.6621V19H38.6836ZM35.3496 15.8945C35.3496 16.6914 35.5176 17.2871 35.8535 17.6816C36.1895 18.0762 36.5859 18.2734 37.043 18.2734C37.5039 18.2734 37.8945 18.0859 38.2148 17.7109C38.5391 17.332 38.7012 16.7559 38.7012 15.9824C38.7012 15.1309 38.5371 14.5059 38.209 14.1074C37.8809 13.709 37.4766 13.5098 36.9961 13.5098C36.5273 13.5098 36.1348 13.7012 35.8184 14.084C35.5059 14.4668 35.3496 15.0703 35.3496 15.8945ZM41.332 11.623V10.4102H42.3867V11.623H41.332ZM41.332 19V12.7773H42.3867V19H41.332ZM43.9863 19V12.7773H44.9355V13.7207C45.1777 13.2793 45.4004 12.9883 45.6035 12.8477C45.8105 12.707 46.0371 12.6367 46.2832 12.6367C46.6387 12.6367 47 12.75 47.3672 12.9766L47.0039 13.9551C46.7461 13.8027 46.4883 13.7266 46.2305 13.7266C46 13.7266 45.793 13.7969 45.6094 13.9375C45.4258 14.0742 45.2949 14.2656 45.2168 14.5117C45.0996 14.8867 45.041 15.2969 45.041 15.7422V19H43.9863ZM48 11.623V10.4102H49.0547V11.623H48ZM48 19V12.7773H49.0547V19H48Z" fill="black"/>
<rect x="0.5" y="0.5" width="60" height="29" rx="3.5" stroke="#D0D0D0"/>
</svg>
