<svg width="61" height="30" viewBox="0 0 61 30" fill="none" xmlns="http://www.w3.org/2000/svg">
<rect x="0.5" y="0.5" width="60" height="29" rx="3.5" fill="white"/>
<path d="M18.8789 19V10.4102H22.1016C22.7578 10.4102 23.2832 10.498 23.6777 10.6738C24.0762 10.8457 24.3867 11.1133 24.6094 11.4766C24.8359 11.8359 24.9492 12.2129 24.9492 12.6074C24.9492 12.9746 24.8496 13.3203 24.6504 13.6445C24.4512 13.9688 24.1504 14.2305 23.748 14.4297C24.2676 14.582 24.666 14.8418 24.9434 15.209C25.2246 15.5762 25.3652 16.0098 25.3652 16.5098C25.3652 16.9121 25.2793 17.2871 25.1074 17.6348C24.9395 17.9785 24.7305 18.2441 24.4805 18.4316C24.2305 18.6191 23.916 18.7617 23.5371 18.8594C23.1621 18.9531 22.7012 19 22.1543 19H18.8789ZM20.0156 14.0195H21.873C22.377 14.0195 22.7383 13.9863 22.957 13.9199C23.2461 13.834 23.4629 13.6914 23.6074 13.4922C23.7559 13.293 23.8301 13.043 23.8301 12.7422C23.8301 12.457 23.7617 12.207 23.625 11.9922C23.4883 11.7734 23.293 11.625 23.0391 11.5469C22.7852 11.4648 22.3496 11.4238 21.7324 11.4238H20.0156V14.0195ZM20.0156 17.9863H22.1543C22.5215 17.9863 22.7793 17.9727 22.9277 17.9453C23.1895 17.8984 23.4082 17.8203 23.584 17.7109C23.7598 17.6016 23.9043 17.4434 24.0176 17.2363C24.1309 17.0254 24.1875 16.7832 24.1875 16.5098C24.1875 16.1895 24.1055 15.9121 23.9414 15.6777C23.7773 15.4395 23.5488 15.2734 23.2559 15.1797C22.9668 15.082 22.5488 15.0332 22.002 15.0332H20.0156V17.9863ZM33.0586 15.9883L34.1953 16.2754C33.957 17.209 33.5273 17.9219 32.9062 18.4141C32.2891 18.9023 31.5332 19.1465 30.6387 19.1465C29.7129 19.1465 28.959 18.959 28.377 18.584C27.7988 18.2051 27.3574 17.6582 27.0527 16.9434C26.752 16.2285 26.6016 15.4609 26.6016 14.6406C26.6016 13.7461 26.7715 12.9668 27.1113 12.3027C27.4551 11.6348 27.9414 11.1289 28.5703 10.7852C29.2031 10.4375 29.8984 10.2637 30.6562 10.2637C31.5156 10.2637 32.2383 10.4824 32.8242 10.9199C33.4102 11.3574 33.8184 11.9727 34.0488 12.7656L32.9297 13.0293C32.7305 12.4043 32.4414 11.9492 32.0625 11.6641C31.6836 11.3789 31.207 11.2363 30.6328 11.2363C29.9727 11.2363 29.4199 11.3945 28.9746 11.7109C28.5332 12.0273 28.2227 12.4531 28.043 12.9883C27.8633 13.5195 27.7734 14.0684 27.7734 14.6348C27.7734 15.3652 27.8789 16.0039 28.0898 16.5508C28.3047 17.0938 28.6367 17.5 29.0859 17.7695C29.5352 18.0391 30.0215 18.1738 30.5449 18.1738C31.1816 18.1738 31.7207 17.9902 32.1621 17.623C32.6035 17.2559 32.9023 16.7109 33.0586 15.9883ZM34.6582 19L37.957 10.4102H39.1816L42.6973 19H41.4023L40.4004 16.3984H36.8086L35.8652 19H34.6582ZM37.1367 15.4727H40.0488L39.1523 13.0938C38.8789 12.3711 38.6758 11.7773 38.543 11.3125C38.4336 11.8633 38.2793 12.4102 38.0801 12.9531L37.1367 15.4727Z" fill="black"/>
<rect x="0.5" y="0.5" width="60" height="29" rx="3.5" stroke="#D0D0D0"/>
</svg>
